<?xml version="1.0" encoding="utf-8"?>
<!-- Generator: Adobe Illustrator 20.0.0, SVG Export Plug-In . SVG Version: 6.00 Build 0)  -->
<svg version="1.1" baseProfile="tiny" id="Layer_1" xmlns="http://www.w3.org/2000/svg" xmlns:xlink="http://www.w3.org/1999/xlink"
	 x="0px" y="0px" viewBox="0 0 236 40" xml:space="preserve">
<g>
	<path class="circle" d="M111.2,39.7c-2.1-0.3-4.2-0.8-6.1-1.8c-6.1-3-9.9-7.8-11-14.5c-1.1-6.6,0.7-12.3,5.3-17.1c3.1-3.3,7-5.1,11.5-5.7
		c0.1,0,0.2-0.1,0.3-0.1c1.5,0,2.9,0,4.4,0c2,0.3,4,0.8,5.9,1.7c2.2,1,4.2,2.4,5.9,4.1c0.4,0.4,0.5,0.6,0,1
		c-0.4,0.4-0.8,0.8-1.1,1.2c-0.3,0.4-0.6,0.4-1,0c-2.3-2.3-5-3.9-8.1-4.6c-9.4-2.3-18.9,4.2-20.3,13.7c-1.4,9,4.8,17.4,13.5,18.9
		c9.5,1.7,18-4.9,19.4-13.9c0.3-1.7,0.3-3.4,0-5c-0.1-0.5,0-0.9,0.4-1.2c0.5-0.5,1-1.1,1.5-1.7c0.1-0.1,0.2-0.3,0.4-0.3
		c0.2,0.1,0.2,0.3,0.2,0.4c1.3,5,0.9,9.9-1.6,14.5c-3.2,5.9-8.2,9.4-14.9,10.3c-0.1,0-0.2,0.1-0.2,0.1
		C114.1,39.7,112.7,39.7,111.2,39.7z"/>
	<path d="M234,10.5c-0.3,0-0.6,0-0.8,0c-3.7,0-7.3,0-11,0c-0.6,0-0.8,0.1-0.8,0.7c0,2.1,0,4.1,0,6.2c0,0.5,0.2,0.7,0.7,0.7
		c3.3,0,6.6,0,9.9,0c0.9,0,0.9,0,0.9,0.9c0,0.5,0,0.9,0,1.4c0.1,0.6-0.2,0.7-0.7,0.7c-3.3,0-6.6,0-9.9,0c-0.7,0-0.9,0.2-0.8,0.8
		c0,2.2,0,4.5,0,6.8c0,0.6,0.2,0.8,0.8,0.8c3.6,0,7.3,0,10.9,0c0.3,0,0.6,0,0.8,0c0,1,0,1.9,0,2.9c-0.2,0-0.4,0-0.6,0
		c-4.8,0-9.6,0-14.5,0c-0.6,0-0.8-0.2-0.8-0.8c0-7.7,0-15.4,0-23.2c0-0.5,0-0.8,0.7-0.8c4.9,0,9.9,0,14.8,0c0.1,0,0.3,0,0.4,0
		C234,8.6,234,9.6,234,10.5z"/>
	<path d="M2.2,7.7c0.2,0,0.5,0,0.7,0c6.3,0,12.6,0,18.9,0c0.9,0,0.9,0,0.9,0.9c0,2,0,2-2,2c-1.9,0-3.9,0-5.8,0c-0.8,0-0.8,0-0.8,0.9
		c0,6.7,0,13.3,0,20c0,1,0,1-1,1c-0.6,0-1.2,0-1.8,0c-0.4,0-0.6-0.2-0.5-0.5c0-0.2,0-0.4,0-0.6c0-6.6,0-13.2,0-19.7
		c0-0.9,0-0.9-0.9-0.9c-2.6,0-5.1,0-7.7,0C2.2,9.6,2.2,8.6,2.2,7.7z"/>
	<path d="M163.3,13.8c-1.4,2.3-2.8,4.5-4.3,6.8c-1.2,1.9-2.3,3.7-3.5,5.6c-0.5,0.8-0.6,0.8-1.1,0c-2.5-3.9-4.9-7.8-7.4-11.7
		c-0.1-0.2-0.3-0.5-0.5-0.7c-0.2,0.3-0.1,0.5-0.1,0.7c0,5.6,0,11.2,0,16.8c0,1,0,1-1,1c-0.6,0-1.1,0-1.7,0c-0.3,0-0.5-0.1-0.5-0.5
		c0-0.2,0-0.3,0-0.5c0-7.6,0-15.3,0-22.9c0-0.9,0-0.8,0.9-0.9c1.6-0.2,2.5,0.4,3.3,1.8c2.3,4,4.8,7.8,7.2,11.7
		c0.3,0.5,0.5,0.4,0.7,0c2.6-4.3,5.3-8.5,7.9-12.8c0.3-0.5,0.7-0.8,1.3-0.7c0.5,0,1,0,1.4,0c0.5,0,0.7,0.2,0.6,0.7
		c0,0.1,0,0.2,0,0.3c0,7.6,0,15.3,0,22.9c0,0.9,0,0.9-0.9,0.9c-0.5,0-1.1,0-1.6,0c-0.5,0-0.7-0.2-0.7-0.7c0-2.1,0-4.2,0-6.3
		c0-3.6,0-7.2,0-10.8c0-0.2,0-0.5,0-0.7C163.4,13.9,163.4,13.8,163.3,13.8z"/>
	<path d="M191.3,32.4c-2,0-1.5,0.4-2.2-1.6c-0.7-1.7-1.3-3.5-2-5.2c-0.2-0.4-0.4-0.6-0.9-0.6c-2.9,0-5.9,0-8.8,0
		c-0.5,0-0.7,0.2-0.8,0.6c-0.8,2.1-1.6,4.1-2.3,6.2c-0.2,0.5-0.4,0.7-0.9,0.6c-0.7,0-1.4,0-2.1,0c-0.6,0-0.6-0.2-0.4-0.6
		c1.1-2.8,2.2-5.6,3.3-8.4c2-5,3.9-10,5.9-15c0.2-0.5,0.5-0.8,1.1-0.8c0.8,0.1,1.7-0.3,2.3,0.2c0.6,0.4,0.6,1.3,0.9,2
		c2.8,7.2,5.7,14.4,8.5,21.7c0.1,0.2,0.1,0.3,0.2,0.5c0.1,0.3,0,0.4-0.3,0.4C192.2,32.4,191.8,32.4,191.3,32.4z M181.8,12
		c-0.1,0.2-0.2,0.3-0.2,0.4c-1.2,3-2.3,6.1-3.5,9.1c-0.2,0.5,0,0.6,0.5,0.6c2.1,0,4.2,0,6.4,0c0.8,0,0.8,0,0.5-0.7
		c-0.8-2.2-1.7-4.4-2.5-6.6C182.6,13.9,182.2,13,181.8,12z"/>
	<path class="check" d="M115.5,28.7c-0.1-0.1-0.3-0.2-0.4-0.3c-2.9-2.7-5.9-5.3-8.8-8c-1.2-1.1-2.5-2.3-3.8-3.4c-0.4-0.4-0.4-0.7,0-1
		c0.4-0.4,0.7-0.7,1-1.1c0.3-0.4,0.6-0.5,1-0.1c2.1,2,4.3,3.9,6.5,5.9c1.3,1.2,2.6,2.3,3.9,3.5c0.4,0.3,0.5,0.2,0.8-0.1
		c2-2.2,4-4.4,6-6.6c4.2-4.6,8.3-9.2,12.5-13.8c0.3-0.3,0.5-0.3,0.8,0c0.4,0.4,0.9,0.9,1.4,1.3c0.4,0.3,0.4,0.5,0,0.9
		c-2.7,2.9-5.3,5.9-8,8.8c-4.1,4.5-8.1,9-12.2,13.5C115.9,28.4,115.8,28.6,115.5,28.7z"/>
	<path d="M205.1,21.5c0,3.4,0,6.7,0,10.1c0,0.6-0.2,0.9-0.8,0.8c-0.6-0.1-1.3,0-1.9,0c-0.4,0-0.6-0.1-0.6-0.5c0-0.2,0-0.4,0-0.6
		c0-6.6,0-13.2,0-19.7c0-0.9,0-0.9-0.9-0.9c-2.2,0-4.5,0-6.7,0c-1,0-1,0-1-1c0-0.5,0-1,0-1.4c0-0.3,0.1-0.5,0.5-0.5
		c0.1,0,0.3,0,0.4,0c6.3,0,12.6,0,18.8,0c0.9,0,0.9,0,0.9,0.9c0,0.5,0,0.9,0,1.4c0,0.5-0.2,0.7-0.7,0.7c-2.4,0-4.8,0-7.1,0
		c-0.9,0-0.9,0-0.9,0.9C205.1,14.8,205.1,18.1,205.1,21.5z"/>
	<path d="M72.4,21.1c0,0.2,0,0.5,0,0.7c0,3.2,0,6.5,0,9.7c0,0.7-0.2,0.9-0.9,0.8c-0.6,0-1.3,0-1.9,0c-0.5,0-0.6-0.2-0.6-0.6
		c0-0.1,0-0.3,0-0.4c0-7.6,0-15.2,0-22.8c0-1,0-1,1-1c0.5,0,1,0,1.4,0c0.9,0,0.9,0,0.9,0.9c0,3,0,6,0,9c0,0.2-0.1,0.5,0.1,0.8
		c0.7-0.6,1.3-1.2,2-1.9c2.8-2.8,5.6-5.5,8.4-8.3c0.4-0.4,0.8-0.6,1.3-0.5c0.9,0,1.8,0,2.7,0c0.2,0,0.4-0.1,0.5,0.1
		c0.1,0.2-0.1,0.3-0.3,0.4c-1.7,1.7-3.5,3.4-5.2,5.1c-2,2-4,3.9-6.1,5.9c-0.4,0.4-0.2,0.6,0.1,0.9c3.8,3.9,7.6,7.8,11.4,11.7
		c0.1,0.1,0.2,0.2,0.4,0.4c0.2,0.2,0.1,0.3-0.1,0.3c-1.2,0-2.5,0-3.7,0c-0.3,0-0.5-0.3-0.7-0.5c-3.4-3.4-6.7-6.8-10.1-10.3
		c-0.2-0.2-0.3-0.4-0.4-0.6C72.6,21,72.5,21.1,72.4,21.1z"/>
	<path d="M34,25c-1.5,0-2.9,0-4.4,0c-0.5,0-0.7,0.2-0.9,0.6c-0.7,2.1-1.5,4.1-2.3,6.1c-0.2,0.5-0.4,0.7-1,0.7c-0.6,0-1.3,0-1.9,0
		c-0.7,0-0.7,0-0.5-0.7c1.1-2.8,2.2-5.6,3.3-8.4c1.9-5,3.9-9.9,5.8-14.9c0.2-0.6,0.5-0.8,1.1-0.8c0.5,0.1,1,0.1,1.5,0
		c0.6-0.1,0.9,0.2,1.1,0.8c3,7.7,6,15.4,9,23.1c0.3,0.8,0.3,0.9-0.6,0.9c-0.6,0-1.3,0-1.9,0c-0.5,0-0.7-0.2-0.9-0.6
		c-0.8-2.1-1.6-4.1-2.3-6.2c-0.2-0.5-0.4-0.7-1-0.6C36.9,25,35.5,25,34,25z M34,12.1c-0.1,0.1-0.1,0.1-0.2,0.2
		c-1.2,3.1-2.4,6.1-3.5,9.2C30.1,22,30.4,22,30.8,22c2.2,0,4.3,0,6.5,0c0.6,0,0.6-0.2,0.4-0.7c-1.1-2.8-2.2-5.6-3.3-8.5
		C34.3,12.6,34.3,12.3,34,12.1z"/>
	<path d="M56.1,32.8c-2.7,0-5-0.5-7.2-1.8c-0.6-0.3-0.9-0.7-0.8-1.4c0.1-0.7,0-1.3,0-2c0-0.2,0-0.4,0.2-0.5c0.2-0.1,0.3,0.1,0.4,0.2
		c1.5,1.2,3.2,2,5.1,2.3c1.6,0.3,3.3,0.3,4.9-0.3c1.5-0.5,2.4-1.6,2.5-3.2c0.1-1.4-0.5-2.5-1.7-3.2c-1.4-0.9-2.9-1.4-4.4-2
		c-1.2-0.5-2.4-0.9-3.5-1.5c-2.5-1.4-3.7-3.6-3.4-6.5c0.3-2.7,1.9-4.4,4.4-5.3c3.5-1.1,7-0.7,10.2,1.1c0.4,0.2,0.5,0.5,0.5,0.9
		c0,0.7,0,1.5,0,2.2c0,0.2,0.1,0.4-0.1,0.5c-0.2,0.1-0.3-0.1-0.4-0.2c-1.5-1.2-3.2-1.9-5.2-2.1c-1.3-0.2-2.6-0.2-3.9,0.3
		c-1.3,0.5-2.2,1.5-2.3,3c-0.1,1.3,0.5,2.3,1.7,3c1.3,0.8,2.8,1.2,4.3,1.8c1.2,0.5,2.5,0.9,3.6,1.6c2.5,1.4,3.7,3.6,3.5,6.4
		c-0.2,2.8-1.8,4.7-4.4,5.7C58.6,32.6,57.2,32.8,56.1,32.8z"/>
</g>
</svg>
