<?xml version="1.0" encoding="utf-8"?>
<!-- Generator: Adobe Illustrator 20.0.0, SVG Export Plug-In . SVG Version: 6.00 Build 0)  -->
<svg version="1.1" baseProfile="tiny" id="Layer_1" xmlns="http://www.w3.org/2000/svg" xmlns:xlink="http://www.w3.org/1999/xlink"
	 x="0px" y="0px" viewBox="0 0 40 40" xml:space="preserve">
<g>
	<path d="M37.6,9.8c-0.4,1.3-1.1,2.2-2.3,2.9c-0.5,0.3-1.1,0.4-1.8,0.4c-9,0-18.1,0-27.1,0c-2.1,0-3.8-1.5-4-3.6c0-0.1,0-0.1,0-0.2
		c0-0.1,0-0.3,0-0.4c0-0.1,0-0.2,0-0.2C2.7,6.6,4.4,5,6.4,5c2.4,0,4.7,0,7.1,0c0.4,0,0.6-0.1,0.7-0.5c0.3-1.3,1.1-2.3,2.1-3.1
		c0.8-0.7,1.8-0.9,2.8-1.2c0.6,0,1.1,0,1.7,0c0.1,0,0.2,0,0.2,0.1c2.4,0.5,3.9,2,4.6,4.3C25.8,4.9,25.9,5,26.3,5c2.3,0,4.7,0,7,0
		c1.7,0,3.9,1.2,4.3,3.3C37.6,8.8,37.6,9.3,37.6,9.8z M20,11c4.3,0,8.7,0,13,0c0.3,0,0.7,0,1-0.1c1.2-0.3,1.8-1.7,1.3-2.7
		c-0.4-0.8-1.1-1.2-2-1.2C24.4,7,15.6,7,6.7,7C6.6,7,6.5,7,6.4,7c-0.8,0-1.5,0.6-1.7,1.4c-0.2,0.8,0,1.6,0.6,2.1
		c0.5,0.4,1,0.5,1.6,0.5C11.2,11,15.6,11,20,11z M19.9,5c1,0,2.1,0,3.1,0c0.6,0,0.6,0,0.4-0.6c0,0,0-0.1-0.1-0.1
		c-0.8-1.4-2-2.1-3.6-2c-1.5,0.1-2.7,0.9-3.4,2.3C16.2,4.9,16.3,5,16.6,5C17.7,5,18.8,5,19.9,5z"/>
	<path d="M10.9,39.8c-1.5-0.3-2.7-1-3.7-2.2c-0.9-1-1.3-2.3-1.3-3.7c0-1.3,0-2.6,0-3.8c0-4.9,0-9.7,0-14.6c0-0.6,0-0.6,0.6-0.6
		c0.4,0,0.8,0,1.2,0c0.2,0,0.3,0.1,0.3,0.3c0,0.1,0,0.3,0,0.4c0,6,0,12,0,17.9c0,1,0.2,1.9,0.9,2.7c0.8,0.9,1.7,1.4,2.9,1.4
		c2.4,0,4.9,0,7.3,0c3,0,5.9,0,8.9,0c2,0,3.9-1.6,3.9-3.9c0-6.1,0-12.1,0-18.2c0-0.1,0-0.3,0-0.4c0-0.2,0.1-0.3,0.3-0.3
		c0.5,0,1,0,1.5,0c0.2,0,0.3,0.1,0.3,0.3c0,0.1,0,0.3,0,0.4c0,6,0,12,0,18c0,3.1-2.1,5.7-4.9,6.1c0,0,0,0-0.1,0
		C23,39.8,16.9,39.8,10.9,39.8z"/>
	<path d="M28.1,25.7c0,2.8,0,5.7,0,8.5c0,0.7,0,0.7-0.7,0.7c-0.4,0-0.8,0-1.2,0c-0.2,0-0.3-0.1-0.3-0.3c0-0.1,0-0.2,0-0.4
		c0-5.7,0-11.4,0-17.1c0-0.1,0-0.3,0-0.4c0-0.2,0.1-0.3,0.3-0.3c0.5,0,1.1,0,1.6,0c0.2,0,0.3,0.1,0.3,0.3c0,0.1,0,0.3,0,0.4
		C28.1,20,28.1,22.8,28.1,25.7z"/>
	<path d="M18.9,25.6c0-2.9,0-5.8,0-8.6c0-0.6,0-0.6,0.6-0.6c0.4,0,0.8,0,1.2,0c0.3,0,0.4,0.1,0.4,0.4c0,0.1,0,0.2,0,0.3
		c0,5.7,0,11.4,0,17.1c0,0.1,0,0.3,0,0.4c0,0.2-0.1,0.3-0.3,0.3c-0.5,0-1,0-1.5,0c-0.2,0-0.3-0.1-0.3-0.3c0-0.1,0-0.3,0-0.4
		C18.9,31.3,18.9,28.5,18.9,25.6z"/>
	<path d="M14,25.6c0,2.9,0,5.8,0,8.7c0,0.5,0,0.5-0.6,0.5c-0.4,0-0.8,0-1.2,0c-0.2,0-0.3-0.1-0.3-0.3c0-0.1,0-0.2,0-0.3
		c0-5.7,0-11.5,0-17.2c0-0.6,0-0.6,0.6-0.6c0.4,0,0.8,0,1.2,0c0.2,0,0.3,0.1,0.3,0.3c0,0.1,0,0.3,0,0.4C14,19.9,14,22.8,14,25.6z"/>
</g>
</svg>
