<?xml version="1.0" encoding="utf-8"?>
<!-- Generator: Adobe Illustrator 20.0.0, SVG Export Plug-In . SVG Version: 6.00 Build 0)  -->
<svg version="1.1" baseProfile="tiny" id="Layer_1" xmlns="http://www.w3.org/2000/svg" xmlns:xlink="http://www.w3.org/1999/xlink"
	 x="0px" y="0px" viewBox="0 0 40 40" xml:space="preserve">
<g>
	<path d="M39.9,4.5c-0.1,1.1-0.8,1.9-1.5,2.7C30.9,14.6,23.4,22,16,29.5c-0.2,0.2-0.4,0.3-0.7,0.4c-1.8,0.4-3.5,0.9-5.3,1.3
		c-1,0.2-1.6-0.3-1.4-1.3C9,28,9.5,26.1,10,24.3c0.1-0.2,0.2-0.4,0.4-0.5c7.6-7.5,15.1-15,22.7-22.5c0.6-0.5,1.2-0.9,1.9-1.1
		c0.6,0,1.2,0,1.7,0c0.6,0.2,1.1,0.4,1.6,0.8c0.9,0.7,1.5,1.6,1.6,2.8C39.9,3.9,39.9,4.2,39.9,4.5z M11,28.7c0.2,0,0.3-0.1,0.4-0.1
		c0.9-0.2,1.8-0.5,2.8-0.7c0.3-0.1,0.5-0.2,0.6-0.4c1-1,2-2,3-3c2.5-2.4,4.9-4.9,7.4-7.4c3.3-3.2,6.5-6.5,9.8-9.7
		c0.2-0.2,0.2-0.3,0-0.6c-0.7-0.6-1.3-1.3-1.9-1.9c-0.5-0.5-0.4-0.5-0.8,0c-6.5,6.5-13.1,13-19.6,19.5c-0.5,0.5-0.9,1.1-1,1.8
		C11.5,27.1,11.2,27.9,11,28.7z M35.8,2.1c-0.6,0-1,0.4-1.5,0.9c-0.1,0.1,0,0.2,0.1,0.3c0.8,0.8,1.5,1.5,2.3,2.3
		c0.1,0.1,0.2,0.2,0.3,0.1c0.6-0.4,1-1.3,0.8-2C37.5,2.8,36.6,2.1,35.8,2.1z"/>
	<path d="M0.1,13.5c0.1-0.8,0.3-1.6,0.7-2.3c0.9-1.3,2.1-2.1,3.7-2.1c3,0,6,0,9,0c0.4,0,0.5,0.1,0.4,0.5c0,0.4,0,0.8,0,1.2
		c0,0.3-0.1,0.4-0.4,0.4c-0.8,0-1.6,0-2.4,0c-2,0-4.1,0-6.1,0c-0.9,0-1.8,0.3-2.4,1c-0.4,0.5-0.5,1.1-0.5,1.8c0,6.2,0,12.4,0,18.6
		c0,0.8,0,1.6,0,2.5c-0.1,1.6,1.2,2.9,2.9,2.9c5.8,0,11.5,0,17.3,0c1.3,0,2.7,0,4,0c1.5,0,2.6-1.2,2.7-2.7c0-2.8,0-5.6,0-8.4
		c0-0.6,0-0.6,0.6-0.6c0.3,0,0.6,0,0.9,0c0.4,0,0.5,0.1,0.5,0.5c0,2.3,0,4.6,0,6.9c0,0.6,0,1.3,0,1.9c0,2.2-1.7,4.1-3.9,4.5
		c-0.1,0-0.1,0-0.2,0.1c-7.6,0-15.2,0-22.7,0c0,0-0.1,0-0.1,0c-1.5-0.2-2.6-1-3.4-2.3c-0.4-0.7-0.5-1.4-0.6-2.2
		C0.1,28.1,0.1,20.8,0.1,13.5z"/>
</g>
</svg>
