<?xml version="1.0" encoding="utf-8"?>
<!-- Generator: Adobe Illustrator 20.0.0, SVG Export Plug-In . SVG Version: 6.00 Build 0)  -->
<svg version="1.1" baseProfile="tiny" id="Layer_1" xmlns="http://www.w3.org/2000/svg" xmlns:xlink="http://www.w3.org/1999/xlink"
	 x="0px" y="0px" viewBox="0 0 64 51.9" xml:space="preserve">
<path d="M64.1,25.5c-1.3,0-2.7,0-4,0c-0.4,0-0.4-0.2-0.4-0.5c0-1.1,0-2.1,0-3.2c0-2.8,0-5.5,0-8.3c0-1.6-0.9-2.5-2.5-2.5
	c-9.8,0-19.6,0-29.4,0c-0.7,0-1.3-0.2-1.8-0.7c-1.7-1.8-3.5-3.5-5.3-5.2c-0.5-0.5-1-0.7-1.7-0.7c-4,0-8.1,0-12.1,0
	c-1.5,0-2.4,0.9-2.4,2.5c0,10.2,0,20.5,0,30.7c0,2.5,0,4.9,0,7.4c0,1.6,0.9,2.5,2.5,2.5c10,0,19.9,0,29.9,0c0.8,0,0.8,0,0.8,0.8
	c0,1.2,0,2.4,0,3.6c-11.1,0-22.2,0-33.3,0c-0.7-0.2-1.4-0.5-2.1-0.9c-1.1-0.8-1.7-1.9-2.1-3.2c0-14.5,0-29.1,0-43.6
	C0.3,3.4,0.6,2.7,1,2.1C1.9,1,3,0.4,4.3,0c5.7,0,11.4,0,17,0C22,0.2,22.5,0.6,23,1.1c1.5,1.5,3.1,2.9,4.5,4.5c0.8,0.8,1.6,1,2.6,1
	c9.6,0,19.2,0,28.8,0c1.2,0,2.2,0.4,3.2,1.1c1,0.8,1.6,1.9,2,3.1C64.1,15.7,64.1,20.6,64.1,25.5z"/>
<path class="plus" d="M50.5,51.9c0-0.3,0-0.7,0-1c0-2.5,0-5,0-7.5c0-0.7,0-0.7-0.7-0.7c-2.6,0-5.2,0-7.8,0c-0.7,0-0.7,0-0.7-0.7
	c0-1.1,0-2.1,0-3.2c0-0.5,0.2-0.6,0.6-0.6c2.7,0,5.4,0,8,0c0.5,0,0.6-0.1,0.6-0.6c0-2.7,0-5.3,0-8c0-0.5,0.1-0.7,0.6-0.7
	c1.1,0,2.1,0,3.2,0c0.5,0,0.6,0.1,0.6,0.6c0,2.6,0,5.3,0,7.9c0,0.7,0,0.7,0.7,0.7c2.6,0,5.2,0,7.8,0c0.2,0,0.4,0,0.7,0
	c0,1.5,0,2.9,0,4.4c-0.2,0-0.4,0-0.7,0c-2.7,0-5.3,0-8,0c-0.4,0-0.6,0.1-0.6,0.6c0,2.2,0,4.4,0,6.6c0,0.7,0,1.4,0,2.1
	C53.4,51.9,51.9,51.9,50.5,51.9z"/>
</svg>
