<?xml version="1.0" encoding="utf-8"?>
<!-- Generator: Adobe Illustrator 20.0.0, SVG Export Plug-In . SVG Version: 6.00 Build 0)  -->
<svg version="1.1" baseProfile="tiny" id="Layer_1" xmlns="http://www.w3.org/2000/svg" xmlns:xlink="http://www.w3.org/1999/xlink"
	 x="0px" y="0px" viewBox="0 0 48 48" overflow="visible" xml:space="preserve">
<g>
	<path d="M7.2,43.1c-1.7,0-3.4,0-5.2,0c-1.2,0-1.8-0.6-1.8-1.8c0-1.6,0-3.3,0-4.9c0-0.9,0.4-1.5,1.2-1.9c3.7-1.5,7.4-3.3,10.7-5.5
		c1.1-0.7,2.3-1.5,3.1-2.6c0.6-0.7,0.6-1.7,0-2.4c-1.2-1.5-2-3.1-2.5-4.9c-0.1-0.3-0.2-0.5-0.4-0.7c-1.1-1.1-1.5-2.5-0.8-3.9
		c0.4-0.9,0.5-1.8,0.5-2.8c0-1.3-0.1-2.6,0-3.9c0.2-3.2,1.7-5.6,4.8-6.9c1.2-0.5,2.5-0.6,3.8-0.6c1.7,0,3.4,0.2,5,1
		c2.2,1.1,3.4,2.9,3.8,5.3c0.4,1.9,0.2,3.8,0.2,5.7c0,0.7,0.1,1.4,0.4,2.1c0.7,1.4,0.4,3-0.7,4c-0.2,0.2-0.4,0.5-0.5,0.8
		c-0.6,1.8-1.4,3.6-2.6,5c-0.4,0.5-0.4,1.5,0,2.1c0.4,0.5,0.8,1,1.4,1.4c0.4,0.3,0.3,0.5,0,0.8c-2.5,2.5-5,5-7.5,7.5
		c-2.1,2.1-4.2,4.2-6.3,6.3c-0.6,0.6-1.2,0.9-2,0.8C10.2,43,8.7,43.1,7.2,43.1C7.2,43.1,7.2,43.1,7.2,43.1z"/>
	<path d="M48,25c0.1,5.5-5.5,9.8-11.2,7.7c-0.3-0.1-0.5-0.1-0.8,0.2c-1,1.1-2.1,2.1-3.2,3.2c-0.3,0.3-0.6,0.4-1,0.4
		c-1.1,0-2.3-0.1-3.4-0.1c-0.4,0-0.6,0.1-0.6,0.5c-0.2,1.6-0.4,3.1-0.6,4.7c-0.1,0.5-0.3,0.7-0.7,0.8c-1.1,0.2-2.3,0.4-3.4,0.7
		c-0.4,0.1-0.6,0.2-0.7,0.7c-0.2,1-0.5,2-0.8,3c-0.1,0.3-0.2,0.5-0.6,0.5c-1.3,0-2.5,0.1-3.8,0.1c-0.5,0-0.7-0.2-0.8-0.6
		c-0.2-0.6-0.4-1.1-0.7-1.7c-0.2-0.5-0.1-0.8,0.3-1.2c5.2-5.2,10.4-10.4,15.6-15.6c0.1-0.1,0.2-0.2,0.3-0.3c0.2-0.2,0.3-0.4,0.2-0.7
		c-1.2-4.2,0.8-8.4,4.9-10.1c3.8-1.5,8.3,0.1,10.2,3.7C47.7,22.5,48,23.6,48,25z M42.1,24.6c1.1,0,1.9-0.8,1.9-1.8
		c0-1-0.8-1.9-1.9-1.9c-1,0-1.8,0.8-1.8,1.8C40.3,23.8,41.1,24.6,42.1,24.6z"/>
	<path d="M35.1,43.1c-1.5,0-3.1,0-4.6,0c-0.5,0-0.6-0.1-0.6-0.6c0.2-0.9,0.3-1.8,0.4-2.7c0-0.4,0.2-0.5,0.6-0.5c0.5,0,0.9,0,1.4,0
		c0.9,0.1,1.7-0.3,2.4-1c0.7-0.7,1.4-1.4,2.1-2.1c0.3-0.3,0.6-0.4,1-0.3c1.1,0.3,2.1,0.2,3.2,0.1c0.4,0,0.5,0.1,0.5,0.5
		c0,1.6,0,3.2,0,4.8c0,1.2-0.7,1.8-1.9,1.8C38.1,43.1,36.6,43.1,35.1,43.1C35.1,43.1,35.1,43.1,35.1,43.1z"/>
</g>
</svg>
